<mxfile host="app.diagrams.net" modified="2024-05-03T11:11:13.503Z" agent="Mozilla/5.0 (Macintosh; Intel Mac OS X 10_15_7) AppleWebKit/537.36 (KHTML, like Gecko) Chrome/124.0.0.0 Safari/537.36" etag="HnnOC_a9y05H6Ln4BGxa" version="24.3.1" type="device">
  <diagram name="Page-1" id="HDuXw-QlhJ11YC1dcPAw">
    <mxGraphModel dx="7436" dy="801" grid="1" gridSize="10" guides="1" tooltips="1" connect="1" arrows="1" fold="1" page="0" pageScale="1" pageWidth="827" pageHeight="1169" background="#FFF2CC" math="0" shadow="0">
      <root>
        <mxCell id="0" />
        <mxCell id="1" parent="0" />
        <mxCell id="bRdnowW25l7c8z7Rshd9-3" value="" style="edgeStyle=orthogonalEdgeStyle;rounded=0;orthogonalLoop=1;jettySize=auto;html=1;" parent="1" source="bRdnowW25l7c8z7Rshd9-1" target="bRdnowW25l7c8z7Rshd9-2" edge="1">
          <mxGeometry relative="1" as="geometry" />
        </mxCell>
        <mxCell id="bRdnowW25l7c8z7Rshd9-1" value="npm start" style="rounded=0;whiteSpace=wrap;html=1;" parent="1" vertex="1">
          <mxGeometry x="90" y="200" width="120" height="60" as="geometry" />
        </mxCell>
        <mxCell id="bRdnowW25l7c8z7Rshd9-5" value="" style="edgeStyle=orthogonalEdgeStyle;rounded=0;orthogonalLoop=1;jettySize=auto;html=1;" parent="1" source="bRdnowW25l7c8z7Rshd9-2" target="bRdnowW25l7c8z7Rshd9-4" edge="1">
          <mxGeometry relative="1" as="geometry" />
        </mxCell>
        <mxCell id="bRdnowW25l7c8z7Rshd9-2" value="main.ts" style="whiteSpace=wrap;html=1;rounded=0;" parent="1" vertex="1">
          <mxGeometry x="290" y="200" width="120" height="60" as="geometry" />
        </mxCell>
        <mxCell id="bRdnowW25l7c8z7Rshd9-7" value="" style="edgeStyle=orthogonalEdgeStyle;rounded=0;orthogonalLoop=1;jettySize=auto;html=1;" parent="1" source="bRdnowW25l7c8z7Rshd9-4" target="bRdnowW25l7c8z7Rshd9-6" edge="1">
          <mxGeometry relative="1" as="geometry" />
        </mxCell>
        <mxCell id="bRdnowW25l7c8z7Rshd9-4" value="AppModule" style="whiteSpace=wrap;html=1;rounded=0;" parent="1" vertex="1">
          <mxGeometry x="490" y="200" width="120" height="60" as="geometry" />
        </mxCell>
        <mxCell id="bRdnowW25l7c8z7Rshd9-19" value="" style="edgeStyle=orthogonalEdgeStyle;rounded=0;orthogonalLoop=1;jettySize=auto;html=1;" parent="1" source="bRdnowW25l7c8z7Rshd9-6" target="bRdnowW25l7c8z7Rshd9-18" edge="1">
          <mxGeometry relative="1" as="geometry" />
        </mxCell>
        <mxCell id="bRdnowW25l7c8z7Rshd9-6" value="AppComponent" style="whiteSpace=wrap;html=1;rounded=0;" parent="1" vertex="1">
          <mxGeometry x="690" y="200" width="120" height="60" as="geometry" />
        </mxCell>
        <mxCell id="bRdnowW25l7c8z7Rshd9-8" value="Components" style="swimlane;fontStyle=0;childLayout=stackLayout;horizontal=1;startSize=30;horizontalStack=0;resizeParent=1;resizeParentMax=0;resizeLast=0;collapsible=1;marginBottom=0;whiteSpace=wrap;html=1;fillColor=#dae8fc;strokeColor=#6c8ebf;" parent="1" vertex="1">
          <mxGeometry x="-170" y="-30" width="190" height="180" as="geometry" />
        </mxCell>
        <mxCell id="bRdnowW25l7c8z7Rshd9-9" value="-&amp;gt; Resuable (UI + Biz Logic)" style="text;strokeColor=none;fillColor=none;align=left;verticalAlign=middle;spacingLeft=4;spacingRight=4;overflow=hidden;points=[[0,0.5],[1,0.5]];portConstraint=eastwest;rotatable=0;whiteSpace=wrap;html=1;" parent="bRdnowW25l7c8z7Rshd9-8" vertex="1">
          <mxGeometry y="30" width="190" height="30" as="geometry" />
        </mxCell>
        <mxCell id="bRdnowW25l7c8z7Rshd9-10" value="-&amp;gt; Modular" style="text;strokeColor=none;fillColor=none;align=left;verticalAlign=middle;spacingLeft=4;spacingRight=4;overflow=hidden;points=[[0,0.5],[1,0.5]];portConstraint=eastwest;rotatable=0;whiteSpace=wrap;html=1;" parent="bRdnowW25l7c8z7Rshd9-8" vertex="1">
          <mxGeometry y="60" width="190" height="30" as="geometry" />
        </mxCell>
        <mxCell id="bRdnowW25l7c8z7Rshd9-11" value="-&amp;gt; Composable" style="text;strokeColor=none;fillColor=none;align=left;verticalAlign=middle;spacingLeft=4;spacingRight=4;overflow=hidden;points=[[0,0.5],[1,0.5]];portConstraint=eastwest;rotatable=0;whiteSpace=wrap;html=1;" parent="bRdnowW25l7c8z7Rshd9-8" vertex="1">
          <mxGeometry y="90" width="190" height="30" as="geometry" />
        </mxCell>
        <mxCell id="bRdnowW25l7c8z7Rshd9-16" value="-&amp;gt; Configurable" style="text;strokeColor=none;fillColor=none;align=left;verticalAlign=middle;spacingLeft=4;spacingRight=4;overflow=hidden;points=[[0,0.5],[1,0.5]];portConstraint=eastwest;rotatable=0;whiteSpace=wrap;html=1;" parent="bRdnowW25l7c8z7Rshd9-8" vertex="1">
          <mxGeometry y="120" width="190" height="30" as="geometry" />
        </mxCell>
        <mxCell id="bRdnowW25l7c8z7Rshd9-17" value="-&amp;gt; Testable" style="text;strokeColor=none;fillColor=none;align=left;verticalAlign=middle;spacingLeft=4;spacingRight=4;overflow=hidden;points=[[0,0.5],[1,0.5]];portConstraint=eastwest;rotatable=0;whiteSpace=wrap;html=1;" parent="bRdnowW25l7c8z7Rshd9-8" vertex="1">
          <mxGeometry y="150" width="190" height="30" as="geometry" />
        </mxCell>
        <mxCell id="bRdnowW25l7c8z7Rshd9-21" value="" style="edgeStyle=orthogonalEdgeStyle;rounded=0;orthogonalLoop=1;jettySize=auto;html=1;" parent="1" source="bRdnowW25l7c8z7Rshd9-18" target="bRdnowW25l7c8z7Rshd9-20" edge="1">
          <mxGeometry relative="1" as="geometry" />
        </mxCell>
        <mxCell id="bRdnowW25l7c8z7Rshd9-18" value="&amp;lt;message&amp;gt;" style="whiteSpace=wrap;html=1;rounded=0;" parent="1" vertex="1">
          <mxGeometry x="890" y="200" width="120" height="60" as="geometry" />
        </mxCell>
        <mxCell id="bRdnowW25l7c8z7Rshd9-20" value="message.component.html" style="whiteSpace=wrap;html=1;rounded=0;" parent="1" vertex="1">
          <mxGeometry x="1090" y="200" width="120" height="60" as="geometry" />
        </mxCell>
        <mxCell id="JdlYXXrfO3Y3O5DC-lxx-3" value="" style="edgeStyle=orthogonalEdgeStyle;rounded=0;orthogonalLoop=1;jettySize=auto;html=1;" parent="1" source="JdlYXXrfO3Y3O5DC-lxx-1" target="JdlYXXrfO3Y3O5DC-lxx-2" edge="1">
          <mxGeometry relative="1" as="geometry" />
        </mxCell>
        <mxCell id="JdlYXXrfO3Y3O5DC-lxx-5" style="edgeStyle=orthogonalEdgeStyle;rounded=0;orthogonalLoop=1;jettySize=auto;html=1;entryX=0.5;entryY=0;entryDx=0;entryDy=0;" parent="1" source="JdlYXXrfO3Y3O5DC-lxx-1" target="JdlYXXrfO3Y3O5DC-lxx-4" edge="1">
          <mxGeometry relative="1" as="geometry" />
        </mxCell>
        <mxCell id="JdlYXXrfO3Y3O5DC-lxx-1" value="Binding" style="rounded=1;whiteSpace=wrap;html=1;fillColor=#f8cecc;strokeColor=#b85450;" parent="1" vertex="1">
          <mxGeometry x="120" y="350" width="120" height="60" as="geometry" />
        </mxCell>
        <mxCell id="JdlYXXrfO3Y3O5DC-lxx-9" style="edgeStyle=orthogonalEdgeStyle;rounded=0;orthogonalLoop=1;jettySize=auto;html=1;" parent="1" source="JdlYXXrfO3Y3O5DC-lxx-2" edge="1">
          <mxGeometry relative="1" as="geometry">
            <mxPoint x="-30" y="540" as="targetPoint" />
          </mxGeometry>
        </mxCell>
        <mxCell id="JdlYXXrfO3Y3O5DC-lxx-12" style="edgeStyle=orthogonalEdgeStyle;rounded=0;orthogonalLoop=1;jettySize=auto;html=1;entryX=0.5;entryY=0;entryDx=0;entryDy=0;" parent="1" source="JdlYXXrfO3Y3O5DC-lxx-2" target="JdlYXXrfO3Y3O5DC-lxx-11" edge="1">
          <mxGeometry relative="1" as="geometry" />
        </mxCell>
        <mxCell id="JdlYXXrfO3Y3O5DC-lxx-2" value="One-Way Binding" style="rounded=1;whiteSpace=wrap;html=1;fillColor=#dae8fc;strokeColor=#6c8ebf;" parent="1" vertex="1">
          <mxGeometry y="450" width="120" height="60" as="geometry" />
        </mxCell>
        <mxCell id="JdlYXXrfO3Y3O5DC-lxx-4" value="Two-Way Binding" style="rounded=1;whiteSpace=wrap;html=1;fillColor=#dae8fc;strokeColor=#6c8ebf;" parent="1" vertex="1">
          <mxGeometry x="210" y="450" width="120" height="60" as="geometry" />
        </mxCell>
        <mxCell id="JdlYXXrfO3Y3O5DC-lxx-8" style="edgeStyle=orthogonalEdgeStyle;rounded=0;orthogonalLoop=1;jettySize=auto;html=1;" parent="1" source="JdlYXXrfO3Y3O5DC-lxx-6" target="JdlYXXrfO3Y3O5DC-lxx-7" edge="1">
          <mxGeometry relative="1" as="geometry" />
        </mxCell>
        <mxCell id="JdlYXXrfO3Y3O5DC-lxx-6" value="Model (property)" style="shape=process;whiteSpace=wrap;html=1;backgroundOutline=1;" parent="1" vertex="1">
          <mxGeometry x="-60" y="620" width="120" height="60" as="geometry" />
        </mxCell>
        <mxCell id="JdlYXXrfO3Y3O5DC-lxx-7" value="UI (html)" style="shape=process;whiteSpace=wrap;html=1;backgroundOutline=1;" parent="1" vertex="1">
          <mxGeometry x="170" y="620" width="120" height="60" as="geometry" />
        </mxCell>
        <mxCell id="JdlYXXrfO3Y3O5DC-lxx-10" value="{{}}&amp;nbsp;" style="rounded=1;whiteSpace=wrap;html=1;fillColor=#d5e8d4;strokeColor=#82b366;sketch=1;curveFitting=1;jiggle=2;" parent="1" vertex="1">
          <mxGeometry x="-70" y="540" width="90" height="40" as="geometry" />
        </mxCell>
        <mxCell id="JdlYXXrfO3Y3O5DC-lxx-11" value="Property Binding Syntax" style="rounded=1;whiteSpace=wrap;html=1;fillColor=#d5e8d4;strokeColor=#82b366;sketch=1;curveFitting=1;jiggle=2;" parent="1" vertex="1">
          <mxGeometry x="90" y="540" width="90" height="40" as="geometry" />
        </mxCell>
        <mxCell id="JdlYXXrfO3Y3O5DC-lxx-13" value="Source" style="text;html=1;align=center;verticalAlign=middle;whiteSpace=wrap;rounded=0;" parent="1" vertex="1">
          <mxGeometry x="-40" y="680" width="60" height="30" as="geometry" />
        </mxCell>
        <mxCell id="JdlYXXrfO3Y3O5DC-lxx-14" value="Target" style="text;html=1;align=center;verticalAlign=middle;whiteSpace=wrap;rounded=0;" parent="1" vertex="1">
          <mxGeometry x="210" y="680" width="60" height="30" as="geometry" />
        </mxCell>
        <mxCell id="JdlYXXrfO3Y3O5DC-lxx-15" value="Online Shopping App" style="rounded=1;whiteSpace=wrap;html=1;fillColor=#dae8fc;strokeColor=#6c8ebf;sketch=1;curveFitting=1;jiggle=2;" parent="1" vertex="1">
          <mxGeometry x="-110" y="770" width="180" height="30" as="geometry" />
        </mxCell>
        <mxCell id="JdlYXXrfO3Y3O5DC-lxx-21" value="" style="edgeStyle=orthogonalEdgeStyle;rounded=0;orthogonalLoop=1;jettySize=auto;html=1;" parent="1" source="JdlYXXrfO3Y3O5DC-lxx-18" target="JdlYXXrfO3Y3O5DC-lxx-20" edge="1">
          <mxGeometry relative="1" as="geometry" />
        </mxCell>
        <mxCell id="JdlYXXrfO3Y3O5DC-lxx-18" value="App" style="shape=cube;whiteSpace=wrap;html=1;boundedLbl=1;backgroundOutline=1;darkOpacity=0.05;darkOpacity2=0.1;fillColor=#dae8fc;strokeColor=#6c8ebf;" parent="1" vertex="1">
          <mxGeometry x="-60" y="860" width="100" height="60" as="geometry" />
        </mxCell>
        <mxCell id="JdlYXXrfO3Y3O5DC-lxx-19" style="edgeStyle=orthogonalEdgeStyle;rounded=0;orthogonalLoop=1;jettySize=auto;html=1;entryX=0;entryY=0;entryDx=40;entryDy=0;entryPerimeter=0;" parent="1" source="JdlYXXrfO3Y3O5DC-lxx-15" target="JdlYXXrfO3Y3O5DC-lxx-18" edge="1">
          <mxGeometry relative="1" as="geometry" />
        </mxCell>
        <mxCell id="JdlYXXrfO3Y3O5DC-lxx-23" value="" style="edgeStyle=orthogonalEdgeStyle;rounded=0;orthogonalLoop=1;jettySize=auto;html=1;" parent="1" source="JdlYXXrfO3Y3O5DC-lxx-20" target="JdlYXXrfO3Y3O5DC-lxx-22" edge="1">
          <mxGeometry relative="1" as="geometry" />
        </mxCell>
        <mxCell id="JdlYXXrfO3Y3O5DC-lxx-20" value="ListOfProducts" style="shape=cube;whiteSpace=wrap;html=1;boundedLbl=1;backgroundOutline=1;darkOpacity=0.05;darkOpacity2=0.1;fillColor=#dae8fc;strokeColor=#6c8ebf;" parent="1" vertex="1">
          <mxGeometry x="-60" y="960" width="100" height="60" as="geometry" />
        </mxCell>
        <mxCell id="JdlYXXrfO3Y3O5DC-lxx-26" value="" style="edgeStyle=orthogonalEdgeStyle;rounded=0;orthogonalLoop=1;jettySize=auto;html=1;" parent="1" source="JdlYXXrfO3Y3O5DC-lxx-22" edge="1">
          <mxGeometry relative="1" as="geometry">
            <mxPoint x="290" y="990" as="targetPoint" />
          </mxGeometry>
        </mxCell>
        <mxCell id="JdlYXXrfO3Y3O5DC-lxx-22" value="Product" style="shape=cube;whiteSpace=wrap;html=1;boundedLbl=1;backgroundOutline=1;darkOpacity=0.05;darkOpacity2=0.1;fillColor=#dae8fc;strokeColor=#6c8ebf;" parent="1" vertex="1">
          <mxGeometry x="120" y="960" width="100" height="60" as="geometry" />
        </mxCell>
        <mxCell id="JdlYXXrfO3Y3O5DC-lxx-24" value="Array of 5 products (ProductModel)" style="shape=callout;whiteSpace=wrap;html=1;perimeter=calloutPerimeter;position2=0.25;" parent="1" vertex="1">
          <mxGeometry y="930" width="120" height="70" as="geometry" />
        </mxCell>
        <mxCell id="JdlYXXrfO3Y3O5DC-lxx-27" value="Product" style="swimlane;fontStyle=0;childLayout=stackLayout;horizontal=1;startSize=30;horizontalStack=0;resizeParent=1;resizeParentMax=0;resizeLast=0;collapsible=1;marginBottom=0;whiteSpace=wrap;html=1;" parent="1" vertex="1">
          <mxGeometry x="290" y="930" width="140" height="210" as="geometry" />
        </mxCell>
        <mxCell id="JdlYXXrfO3Y3O5DC-lxx-28" value="Id" style="text;strokeColor=none;fillColor=none;align=left;verticalAlign=middle;spacingLeft=4;spacingRight=4;overflow=hidden;points=[[0,0.5],[1,0.5]];portConstraint=eastwest;rotatable=0;whiteSpace=wrap;html=1;" parent="JdlYXXrfO3Y3O5DC-lxx-27" vertex="1">
          <mxGeometry y="30" width="140" height="30" as="geometry" />
        </mxCell>
        <mxCell id="JdlYXXrfO3Y3O5DC-lxx-29" value="Title" style="text;strokeColor=none;fillColor=none;align=left;verticalAlign=middle;spacingLeft=4;spacingRight=4;overflow=hidden;points=[[0,0.5],[1,0.5]];portConstraint=eastwest;rotatable=0;whiteSpace=wrap;html=1;" parent="JdlYXXrfO3Y3O5DC-lxx-27" vertex="1">
          <mxGeometry y="60" width="140" height="30" as="geometry" />
        </mxCell>
        <mxCell id="JdlYXXrfO3Y3O5DC-lxx-30" value="Price" style="text;strokeColor=none;fillColor=none;align=left;verticalAlign=middle;spacingLeft=4;spacingRight=4;overflow=hidden;points=[[0,0.5],[1,0.5]];portConstraint=eastwest;rotatable=0;whiteSpace=wrap;html=1;" parent="JdlYXXrfO3Y3O5DC-lxx-27" vertex="1">
          <mxGeometry y="90" width="140" height="30" as="geometry" />
        </mxCell>
        <mxCell id="JdlYXXrfO3Y3O5DC-lxx-31" value="Rating" style="text;strokeColor=none;fillColor=none;align=left;verticalAlign=middle;spacingLeft=4;spacingRight=4;overflow=hidden;points=[[0,0.5],[1,0.5]];portConstraint=eastwest;rotatable=0;whiteSpace=wrap;html=1;" parent="JdlYXXrfO3Y3O5DC-lxx-27" vertex="1">
          <mxGeometry y="120" width="140" height="30" as="geometry" />
        </mxCell>
        <mxCell id="JdlYXXrfO3Y3O5DC-lxx-33" value="Likes" style="text;strokeColor=none;fillColor=none;align=left;verticalAlign=middle;spacingLeft=4;spacingRight=4;overflow=hidden;points=[[0,0.5],[1,0.5]];portConstraint=eastwest;rotatable=0;whiteSpace=wrap;html=1;" parent="JdlYXXrfO3Y3O5DC-lxx-27" vertex="1">
          <mxGeometry y="150" width="140" height="30" as="geometry" />
        </mxCell>
        <mxCell id="JdlYXXrfO3Y3O5DC-lxx-32" value="ImageUrl" style="text;strokeColor=none;fillColor=none;align=left;verticalAlign=middle;spacingLeft=4;spacingRight=4;overflow=hidden;points=[[0,0.5],[1,0.5]];portConstraint=eastwest;rotatable=0;whiteSpace=wrap;html=1;" parent="JdlYXXrfO3Y3O5DC-lxx-27" vertex="1">
          <mxGeometry y="180" width="140" height="30" as="geometry" />
        </mxCell>
        <mxCell id="JdlYXXrfO3Y3O5DC-lxx-37" style="edgeStyle=orthogonalEdgeStyle;rounded=0;orthogonalLoop=1;jettySize=auto;html=1;entryX=1;entryY=0.5;entryDx=0;entryDy=0;" parent="1" source="JdlYXXrfO3Y3O5DC-lxx-35" target="JdlYXXrfO3Y3O5DC-lxx-15" edge="1">
          <mxGeometry relative="1" as="geometry" />
        </mxCell>
        <mxCell id="JdlYXXrfO3Y3O5DC-lxx-35" value="New App" style="whiteSpace=wrap;html=1;fillColor=#dae8fc;strokeColor=#6c8ebf;rounded=1;sketch=1;curveFitting=1;jiggle=2;" parent="1" vertex="1">
          <mxGeometry x="180" y="755" width="120" height="60" as="geometry" />
        </mxCell>
        <mxCell id="70ixarAjrziTrbDq58aA-3" value="" style="edgeStyle=orthogonalEdgeStyle;rounded=0;orthogonalLoop=1;jettySize=auto;html=1;" parent="1" source="70ixarAjrziTrbDq58aA-1" target="70ixarAjrziTrbDq58aA-2" edge="1">
          <mxGeometry relative="1" as="geometry" />
        </mxCell>
        <mxCell id="70ixarAjrziTrbDq58aA-1" value="store" style="rounded=1;whiteSpace=wrap;html=1;fillColor=#e1d5e7;strokeColor=#9673a6;sketch=1;curveFitting=1;jiggle=2;" parent="1" vertex="1">
          <mxGeometry x="-770" y="1210" width="130" height="30" as="geometry" />
        </mxCell>
        <mxCell id="70ixarAjrziTrbDq58aA-2" value="products[]" style="whiteSpace=wrap;html=1;fillColor=#e1d5e7;strokeColor=#9673a6;rounded=1;sketch=1;curveFitting=1;jiggle=2;" parent="1" vertex="1">
          <mxGeometry x="-555" y="1195" width="120" height="60" as="geometry" />
        </mxCell>
        <mxCell id="70ixarAjrziTrbDq58aA-6" value="" style="edgeStyle=orthogonalEdgeStyle;rounded=0;orthogonalLoop=1;jettySize=auto;html=1;" parent="1" source="70ixarAjrziTrbDq58aA-4" target="70ixarAjrziTrbDq58aA-5" edge="1">
          <mxGeometry relative="1" as="geometry" />
        </mxCell>
        <mxCell id="70ixarAjrziTrbDq58aA-4" value="actions" style="rounded=1;whiteSpace=wrap;html=1;fillColor=#e1d5e7;strokeColor=#9673a6;sketch=1;curveFitting=1;jiggle=2;" parent="1" vertex="1">
          <mxGeometry x="-770" y="1290" width="130" height="30" as="geometry" />
        </mxCell>
        <mxCell id="70ixarAjrziTrbDq58aA-5" value="incrementLikes&lt;div&gt;addProduct&lt;/div&gt;&lt;div&gt;deleteProduct&lt;/div&gt;" style="whiteSpace=wrap;html=1;fillColor=#e1d5e7;strokeColor=#9673a6;rounded=1;sketch=1;curveFitting=1;jiggle=2;" parent="1" vertex="1">
          <mxGeometry x="-555" y="1275" width="120" height="60" as="geometry" />
        </mxCell>
        <mxCell id="70ixarAjrziTrbDq58aA-9" value="" style="edgeStyle=orthogonalEdgeStyle;rounded=0;orthogonalLoop=1;jettySize=auto;html=1;" parent="1" source="70ixarAjrziTrbDq58aA-7" target="70ixarAjrziTrbDq58aA-8" edge="1">
          <mxGeometry relative="1" as="geometry" />
        </mxCell>
        <mxCell id="70ixarAjrziTrbDq58aA-7" value="reducers" style="rounded=1;whiteSpace=wrap;html=1;fillColor=#e1d5e7;strokeColor=#9673a6;sketch=1;curveFitting=1;jiggle=2;" parent="1" vertex="1">
          <mxGeometry x="-770" y="1370" width="130" height="30" as="geometry" />
        </mxCell>
        <mxCell id="70ixarAjrziTrbDq58aA-8" value="functions that change store data" style="whiteSpace=wrap;html=1;fillColor=#e1d5e7;strokeColor=#9673a6;rounded=1;sketch=1;curveFitting=1;jiggle=2;" parent="1" vertex="1">
          <mxGeometry x="-555" y="1355" width="120" height="60" as="geometry" />
        </mxCell>
        <mxCell id="14-h52MNmhF-aHsk9ki6-4" value="" style="edgeStyle=orthogonalEdgeStyle;rounded=0;orthogonalLoop=1;jettySize=auto;html=1;" parent="1" source="14-h52MNmhF-aHsk9ki6-1" target="14-h52MNmhF-aHsk9ki6-3" edge="1">
          <mxGeometry relative="1" as="geometry" />
        </mxCell>
        <mxCell id="14-h52MNmhF-aHsk9ki6-6" value="" style="edgeStyle=orthogonalEdgeStyle;rounded=0;orthogonalLoop=1;jettySize=auto;html=1;" parent="1" source="14-h52MNmhF-aHsk9ki6-1" target="14-h52MNmhF-aHsk9ki6-5" edge="1">
          <mxGeometry relative="1" as="geometry" />
        </mxCell>
        <mxCell id="14-h52MNmhF-aHsk9ki6-8" value="" style="edgeStyle=orthogonalEdgeStyle;rounded=0;orthogonalLoop=1;jettySize=auto;html=1;" parent="1" source="14-h52MNmhF-aHsk9ki6-1" target="14-h52MNmhF-aHsk9ki6-7" edge="1">
          <mxGeometry relative="1" as="geometry" />
        </mxCell>
        <mxCell id="14-h52MNmhF-aHsk9ki6-1" value="" style="rounded=1;whiteSpace=wrap;html=1;fillColor=#e1d5e7;strokeColor=#9673a6;sketch=1;curveFitting=1;jiggle=2;" parent="1" vertex="1">
          <mxGeometry x="-1060" y="240" width="180" height="100" as="geometry" />
        </mxCell>
        <mxCell id="14-h52MNmhF-aHsk9ki6-2" value="" style="shape=image;verticalLabelPosition=bottom;labelBackgroundColor=default;verticalAlign=top;aspect=fixed;imageAspect=0;image=https://upload.wikimedia.org/wikipedia/commons/d/d9/Node.js_logo.svg;" parent="1" vertex="1">
          <mxGeometry x="-1000" y="269.5" width="67.01" height="41" as="geometry" />
        </mxCell>
        <mxCell id="14-h52MNmhF-aHsk9ki6-3" value="Javascript Runtime" style="whiteSpace=wrap;html=1;fillColor=#e1d5e7;strokeColor=#9673a6;rounded=1;sketch=1;curveFitting=1;jiggle=2;" parent="1" vertex="1">
          <mxGeometry x="-770" y="260" width="120" height="60" as="geometry" />
        </mxCell>
        <mxCell id="14-h52MNmhF-aHsk9ki6-5" value="Use to create server side web apps" style="whiteSpace=wrap;html=1;fillColor=#e1d5e7;strokeColor=#9673a6;rounded=1;sketch=1;curveFitting=1;jiggle=2;" parent="1" vertex="1">
          <mxGeometry x="-1030" y="440" width="120" height="60" as="geometry" />
        </mxCell>
        <mxCell id="14-h52MNmhF-aHsk9ki6-7" value="use rich set of tools like webpack angular/cli" style="whiteSpace=wrap;html=1;fillColor=#e1d5e7;strokeColor=#9673a6;rounded=1;sketch=1;curveFitting=1;jiggle=2;" parent="1" vertex="1">
          <mxGeometry x="-1290" y="260" width="120" height="60" as="geometry" />
        </mxCell>
        <mxCell id="14-h52MNmhF-aHsk9ki6-9" value="Server" style="rounded=1;whiteSpace=wrap;html=1;fillColor=#d5e8d4;strokeColor=#82b366;sketch=1;curveFitting=1;jiggle=2;" parent="1" vertex="1">
          <mxGeometry x="-1910" y="260" width="120" height="60" as="geometry" />
        </mxCell>
        <mxCell id="14-h52MNmhF-aHsk9ki6-11" style="edgeStyle=orthogonalEdgeStyle;rounded=0;orthogonalLoop=1;jettySize=auto;html=1;entryX=0;entryY=0.5;entryDx=0;entryDy=0;" parent="1" source="14-h52MNmhF-aHsk9ki6-10" target="14-h52MNmhF-aHsk9ki6-9" edge="1">
          <mxGeometry relative="1" as="geometry" />
        </mxCell>
        <mxCell id="14-h52MNmhF-aHsk9ki6-12" value="request" style="edgeLabel;html=1;align=center;verticalAlign=middle;resizable=0;points=[];" parent="14-h52MNmhF-aHsk9ki6-11" vertex="1" connectable="0">
          <mxGeometry x="-0.1535" y="-2" relative="1" as="geometry">
            <mxPoint as="offset" />
          </mxGeometry>
        </mxCell>
        <mxCell id="14-h52MNmhF-aHsk9ki6-20" value="/Index.html" style="edgeLabel;html=1;align=center;verticalAlign=middle;resizable=0;points=[];" parent="14-h52MNmhF-aHsk9ki6-11" vertex="1" connectable="0">
          <mxGeometry x="0.2902" relative="1" as="geometry">
            <mxPoint as="offset" />
          </mxGeometry>
        </mxCell>
        <mxCell id="14-h52MNmhF-aHsk9ki6-10" value="Client" style="shape=umlActor;verticalLabelPosition=bottom;verticalAlign=top;html=1;outlineConnect=0;" parent="1" vertex="1">
          <mxGeometry x="-2180" y="240" width="30" height="60" as="geometry" />
        </mxCell>
        <mxCell id="14-h52MNmhF-aHsk9ki6-13" value="Index.html" style="shape=note;whiteSpace=wrap;html=1;backgroundOutline=1;darkOpacity=0.05;" parent="1" vertex="1">
          <mxGeometry x="-1710" y="240" width="80" height="100" as="geometry" />
        </mxCell>
        <mxCell id="14-h52MNmhF-aHsk9ki6-14" style="edgeStyle=orthogonalEdgeStyle;rounded=0;orthogonalLoop=1;jettySize=auto;html=1;entryX=0;entryY=0.5;entryDx=0;entryDy=0;entryPerimeter=0;" parent="1" source="14-h52MNmhF-aHsk9ki6-9" target="14-h52MNmhF-aHsk9ki6-13" edge="1">
          <mxGeometry relative="1" as="geometry" />
        </mxCell>
        <mxCell id="14-h52MNmhF-aHsk9ki6-23" value="" style="edgeStyle=orthogonalEdgeStyle;rounded=0;orthogonalLoop=1;jettySize=auto;html=1;" parent="1" source="14-h52MNmhF-aHsk9ki6-21" target="14-h52MNmhF-aHsk9ki6-22" edge="1">
          <mxGeometry relative="1" as="geometry" />
        </mxCell>
        <mxCell id="14-h52MNmhF-aHsk9ki6-26" style="edgeStyle=orthogonalEdgeStyle;rounded=0;orthogonalLoop=1;jettySize=auto;html=1;entryX=0.5;entryY=0;entryDx=0;entryDy=0;" parent="1" source="14-h52MNmhF-aHsk9ki6-21" target="14-h52MNmhF-aHsk9ki6-24" edge="1">
          <mxGeometry relative="1" as="geometry" />
        </mxCell>
        <mxCell id="14-h52MNmhF-aHsk9ki6-27" style="edgeStyle=orthogonalEdgeStyle;rounded=0;orthogonalLoop=1;jettySize=auto;html=1;" parent="1" source="14-h52MNmhF-aHsk9ki6-21" target="14-h52MNmhF-aHsk9ki6-25" edge="1">
          <mxGeometry relative="1" as="geometry">
            <Array as="points">
              <mxPoint x="-2235" y="520" />
              <mxPoint x="-2050" y="520" />
            </Array>
          </mxGeometry>
        </mxCell>
        <mxCell id="14-h52MNmhF-aHsk9ki6-21" value="Modules" style="rounded=1;whiteSpace=wrap;html=1;fillColor=#d5e8d4;strokeColor=#82b366;sketch=1;curveFitting=1;jiggle=2;" parent="1" vertex="1">
          <mxGeometry x="-2310" y="440" width="150" height="50" as="geometry" />
        </mxCell>
        <mxCell id="14-h52MNmhF-aHsk9ki6-22" value="builtin" style="whiteSpace=wrap;html=1;fillColor=#d5e8d4;strokeColor=#82b366;rounded=1;sketch=1;curveFitting=1;jiggle=2;" parent="1" vertex="1">
          <mxGeometry x="-2430" y="550" width="120" height="40" as="geometry" />
        </mxCell>
        <mxCell id="14-h52MNmhF-aHsk9ki6-24" value="npm modules(packages)" style="whiteSpace=wrap;html=1;fillColor=#d5e8d4;strokeColor=#82b366;rounded=1;sketch=1;curveFitting=1;jiggle=2;" parent="1" vertex="1">
          <mxGeometry x="-2280" y="550" width="120" height="40" as="geometry" />
        </mxCell>
        <mxCell id="14-h52MNmhF-aHsk9ki6-25" value="custom modules" style="whiteSpace=wrap;html=1;fillColor=#d5e8d4;strokeColor=#82b366;rounded=1;sketch=1;curveFitting=1;jiggle=2;" parent="1" vertex="1">
          <mxGeometry x="-2110" y="550" width="120" height="40" as="geometry" />
        </mxCell>
        <mxCell id="14-h52MNmhF-aHsk9ki6-29" value="" style="rounded=1;whiteSpace=wrap;html=1;fillColor=#f8cecc;strokeColor=#b85450;sketch=1;curveFitting=1;jiggle=2;" parent="1" vertex="1">
          <mxGeometry x="-2900" y="520" width="160" height="70" as="geometry" />
        </mxCell>
        <mxCell id="14-h52MNmhF-aHsk9ki6-32" value="" style="edgeStyle=orthogonalEdgeStyle;rounded=0;orthogonalLoop=1;jettySize=auto;html=1;" parent="1" source="14-h52MNmhF-aHsk9ki6-30" target="14-h52MNmhF-aHsk9ki6-31" edge="1">
          <mxGeometry relative="1" as="geometry">
            <Array as="points">
              <mxPoint x="-2820" y="610" />
              <mxPoint x="-2900" y="610" />
            </Array>
          </mxGeometry>
        </mxCell>
        <mxCell id="14-h52MNmhF-aHsk9ki6-34" style="edgeStyle=orthogonalEdgeStyle;rounded=0;orthogonalLoop=1;jettySize=auto;html=1;entryX=0.5;entryY=0;entryDx=0;entryDy=0;" parent="1" source="14-h52MNmhF-aHsk9ki6-30" target="14-h52MNmhF-aHsk9ki6-33" edge="1">
          <mxGeometry relative="1" as="geometry">
            <Array as="points">
              <mxPoint x="-2820" y="610" />
              <mxPoint x="-2720" y="610" />
            </Array>
          </mxGeometry>
        </mxCell>
        <mxCell id="14-h52MNmhF-aHsk9ki6-30" value="" style="shape=image;verticalLabelPosition=bottom;labelBackgroundColor=default;verticalAlign=top;aspect=fixed;imageAspect=0;image=https://upload.wikimedia.org/wikipedia/commons/d/d9/Node.js_logo.svg;" parent="1" vertex="1">
          <mxGeometry x="-2853.51" y="539.5" width="67.01" height="41" as="geometry" />
        </mxCell>
        <mxCell id="14-h52MNmhF-aHsk9ki6-31" value="Blocking" style="whiteSpace=wrap;html=1;verticalAlign=top;labelBackgroundColor=default;fillColor=#f8cecc;strokeColor=#b85450;" parent="1" vertex="1">
          <mxGeometry x="-2959.995" y="650" width="120" height="60" as="geometry" />
        </mxCell>
        <mxCell id="14-h52MNmhF-aHsk9ki6-36" value="" style="edgeStyle=orthogonalEdgeStyle;rounded=0;orthogonalLoop=1;jettySize=auto;html=1;" parent="1" source="14-h52MNmhF-aHsk9ki6-33" target="14-h52MNmhF-aHsk9ki6-35" edge="1">
          <mxGeometry relative="1" as="geometry" />
        </mxCell>
        <mxCell id="14-h52MNmhF-aHsk9ki6-38" style="edgeStyle=orthogonalEdgeStyle;rounded=0;orthogonalLoop=1;jettySize=auto;html=1;entryX=0.5;entryY=0;entryDx=0;entryDy=0;" parent="1" source="14-h52MNmhF-aHsk9ki6-33" target="14-h52MNmhF-aHsk9ki6-37" edge="1">
          <mxGeometry relative="1" as="geometry" />
        </mxCell>
        <mxCell id="14-h52MNmhF-aHsk9ki6-33" value="Non - Blocking" style="whiteSpace=wrap;html=1;verticalAlign=top;labelBackgroundColor=default;fillColor=#d5e8d4;strokeColor=#82b366;" parent="1" vertex="1">
          <mxGeometry x="-2780.005" y="650" width="120" height="60" as="geometry" />
        </mxCell>
        <mxCell id="14-h52MNmhF-aHsk9ki6-35" value="Using Callback Methods" style="whiteSpace=wrap;html=1;verticalAlign=top;fillColor=#d5e8d4;strokeColor=#82b366;labelBackgroundColor=default;" parent="1" vertex="1">
          <mxGeometry x="-2849.995" y="760" width="120" height="60" as="geometry" />
        </mxCell>
        <mxCell id="14-h52MNmhF-aHsk9ki6-37" value="Using Events" style="whiteSpace=wrap;html=1;verticalAlign=top;fillColor=#d5e8d4;strokeColor=#82b366;labelBackgroundColor=default;" parent="1" vertex="1">
          <mxGeometry x="-2710.005" y="760" width="120" height="60" as="geometry" />
        </mxCell>
        <mxCell id="gSGFPPf_8N2eM0KzgUbJ-3" value="Server Environment" style="swimlane;whiteSpace=wrap;html=1;" vertex="1" parent="1">
          <mxGeometry x="-3730" y="780" width="570" height="220" as="geometry" />
        </mxCell>
        <mxCell id="gSGFPPf_8N2eM0KzgUbJ-8" style="edgeStyle=orthogonalEdgeStyle;rounded=0;orthogonalLoop=1;jettySize=auto;html=1;" edge="1" parent="gSGFPPf_8N2eM0KzgUbJ-3" source="gSGFPPf_8N2eM0KzgUbJ-4" target="gSGFPPf_8N2eM0KzgUbJ-5">
          <mxGeometry relative="1" as="geometry" />
        </mxCell>
        <mxCell id="gSGFPPf_8N2eM0KzgUbJ-4" value="Client" style="shape=umlActor;verticalLabelPosition=bottom;verticalAlign=top;html=1;outlineConnect=0;" vertex="1" parent="gSGFPPf_8N2eM0KzgUbJ-3">
          <mxGeometry x="40" y="70" width="30" height="60" as="geometry" />
        </mxCell>
        <mxCell id="gSGFPPf_8N2eM0KzgUbJ-9" style="edgeStyle=orthogonalEdgeStyle;rounded=0;orthogonalLoop=1;jettySize=auto;html=1;" edge="1" parent="gSGFPPf_8N2eM0KzgUbJ-3" source="gSGFPPf_8N2eM0KzgUbJ-5" target="gSGFPPf_8N2eM0KzgUbJ-7">
          <mxGeometry relative="1" as="geometry" />
        </mxCell>
        <mxCell id="gSGFPPf_8N2eM0KzgUbJ-11" style="edgeStyle=orthogonalEdgeStyle;rounded=0;orthogonalLoop=1;jettySize=auto;html=1;" edge="1" parent="gSGFPPf_8N2eM0KzgUbJ-3" source="gSGFPPf_8N2eM0KzgUbJ-5" target="gSGFPPf_8N2eM0KzgUbJ-4">
          <mxGeometry relative="1" as="geometry" />
        </mxCell>
        <mxCell id="gSGFPPf_8N2eM0KzgUbJ-5" value="API" style="rounded=0;whiteSpace=wrap;html=1;" vertex="1" parent="gSGFPPf_8N2eM0KzgUbJ-3">
          <mxGeometry x="170" y="50" width="90" height="110" as="geometry" />
        </mxCell>
        <mxCell id="gSGFPPf_8N2eM0KzgUbJ-6" value="Install node &amp;amp; run server" style="shape=step;perimeter=stepPerimeter;whiteSpace=wrap;html=1;fixedSize=1;" vertex="1" parent="gSGFPPf_8N2eM0KzgUbJ-3">
          <mxGeometry x="130" y="170" width="190" height="40" as="geometry" />
        </mxCell>
        <mxCell id="gSGFPPf_8N2eM0KzgUbJ-10" style="edgeStyle=orthogonalEdgeStyle;rounded=0;orthogonalLoop=1;jettySize=auto;html=1;" edge="1" parent="gSGFPPf_8N2eM0KzgUbJ-3" source="gSGFPPf_8N2eM0KzgUbJ-7" target="gSGFPPf_8N2eM0KzgUbJ-5">
          <mxGeometry relative="1" as="geometry" />
        </mxCell>
        <mxCell id="gSGFPPf_8N2eM0KzgUbJ-7" value="MongoDB" style="shape=cylinder3;whiteSpace=wrap;html=1;boundedLbl=1;backgroundOutline=1;size=15;" vertex="1" parent="gSGFPPf_8N2eM0KzgUbJ-3">
          <mxGeometry x="360" y="50" width="90" height="100" as="geometry" />
        </mxCell>
        <mxCell id="gSGFPPf_8N2eM0KzgUbJ-12" value="Serverless Architecture" style="swimlane;whiteSpace=wrap;html=1;fillColor=#dae8fc;strokeColor=#6c8ebf;" vertex="1" parent="1">
          <mxGeometry x="-3900" y="1110" width="540" height="200" as="geometry" />
        </mxCell>
        <mxCell id="gSGFPPf_8N2eM0KzgUbJ-13" value="Client" style="shape=umlActor;verticalLabelPosition=bottom;verticalAlign=top;html=1;outlineConnect=0;" vertex="1" parent="gSGFPPf_8N2eM0KzgUbJ-12">
          <mxGeometry x="10" y="55" width="30" height="60" as="geometry" />
        </mxCell>
        <mxCell id="gSGFPPf_8N2eM0KzgUbJ-23" style="edgeStyle=orthogonalEdgeStyle;rounded=0;orthogonalLoop=1;jettySize=auto;html=1;" edge="1" parent="gSGFPPf_8N2eM0KzgUbJ-12" source="gSGFPPf_8N2eM0KzgUbJ-15">
          <mxGeometry relative="1" as="geometry">
            <mxPoint x="50" y="110" as="targetPoint" />
          </mxGeometry>
        </mxCell>
        <mxCell id="gSGFPPf_8N2eM0KzgUbJ-15" value="API Management AZURE" style="ellipse;shape=cloud;whiteSpace=wrap;html=1;fillColor=#f5f5f5;fontColor=#333333;strokeColor=#666666;" vertex="1" parent="gSGFPPf_8N2eM0KzgUbJ-12">
          <mxGeometry x="110" y="50" width="130" height="70" as="geometry" />
        </mxCell>
        <mxCell id="gSGFPPf_8N2eM0KzgUbJ-19" style="edgeStyle=orthogonalEdgeStyle;rounded=0;orthogonalLoop=1;jettySize=auto;html=1;" edge="1" parent="gSGFPPf_8N2eM0KzgUbJ-12" source="gSGFPPf_8N2eM0KzgUbJ-16" target="gSGFPPf_8N2eM0KzgUbJ-18">
          <mxGeometry relative="1" as="geometry" />
        </mxCell>
        <mxCell id="gSGFPPf_8N2eM0KzgUbJ-16" value="AZURE Functions" style="shape=cube;whiteSpace=wrap;html=1;boundedLbl=1;backgroundOutline=1;darkOpacity=0.05;darkOpacity2=0.1;fillColor=#f8cecc;strokeColor=#b85450;" vertex="1" parent="gSGFPPf_8N2eM0KzgUbJ-12">
          <mxGeometry x="270" y="50" width="120" height="80" as="geometry" />
        </mxCell>
        <mxCell id="gSGFPPf_8N2eM0KzgUbJ-17" style="edgeStyle=orthogonalEdgeStyle;rounded=0;orthogonalLoop=1;jettySize=auto;html=1;entryX=-0.02;entryY=0.534;entryDx=0;entryDy=0;entryPerimeter=0;" edge="1" parent="gSGFPPf_8N2eM0KzgUbJ-12" source="gSGFPPf_8N2eM0KzgUbJ-15" target="gSGFPPf_8N2eM0KzgUbJ-16">
          <mxGeometry relative="1" as="geometry" />
        </mxCell>
        <mxCell id="gSGFPPf_8N2eM0KzgUbJ-18" value="CosmosDB" style="shape=cylinder3;whiteSpace=wrap;html=1;boundedLbl=1;backgroundOutline=1;size=15;fillColor=#e1d5e7;strokeColor=#9673a6;" vertex="1" parent="gSGFPPf_8N2eM0KzgUbJ-12">
          <mxGeometry x="440" y="50" width="60" height="80" as="geometry" />
        </mxCell>
        <mxCell id="gSGFPPf_8N2eM0KzgUbJ-20" style="edgeStyle=orthogonalEdgeStyle;rounded=0;orthogonalLoop=1;jettySize=auto;html=1;entryX=1.002;entryY=0.837;entryDx=0;entryDy=0;entryPerimeter=0;" edge="1" parent="gSGFPPf_8N2eM0KzgUbJ-12" source="gSGFPPf_8N2eM0KzgUbJ-18" target="gSGFPPf_8N2eM0KzgUbJ-16">
          <mxGeometry relative="1" as="geometry" />
        </mxCell>
        <mxCell id="gSGFPPf_8N2eM0KzgUbJ-21" style="edgeStyle=orthogonalEdgeStyle;rounded=0;orthogonalLoop=1;jettySize=auto;html=1;entryX=0.71;entryY=0.923;entryDx=0;entryDy=0;entryPerimeter=0;" edge="1" parent="gSGFPPf_8N2eM0KzgUbJ-12" source="gSGFPPf_8N2eM0KzgUbJ-16" target="gSGFPPf_8N2eM0KzgUbJ-15">
          <mxGeometry relative="1" as="geometry" />
        </mxCell>
        <mxCell id="gSGFPPf_8N2eM0KzgUbJ-22" style="edgeStyle=orthogonalEdgeStyle;rounded=0;orthogonalLoop=1;jettySize=auto;html=1;entryX=0.291;entryY=0.204;entryDx=0;entryDy=0;entryPerimeter=0;" edge="1" parent="gSGFPPf_8N2eM0KzgUbJ-12" source="gSGFPPf_8N2eM0KzgUbJ-13" target="gSGFPPf_8N2eM0KzgUbJ-15">
          <mxGeometry relative="1" as="geometry" />
        </mxCell>
        <mxCell id="gSGFPPf_8N2eM0KzgUbJ-24" value="AZURE Serverless Architecture" style="rounded=1;whiteSpace=wrap;html=1;fillColor=#dae8fc;strokeColor=#6c8ebf;sketch=1;curveFitting=1;jiggle=2;" vertex="1" parent="1">
          <mxGeometry x="-4420" y="1130" width="240" height="50" as="geometry" />
        </mxCell>
        <mxCell id="gSGFPPf_8N2eM0KzgUbJ-25" value="Compute (Azure Functions)" style="rounded=0;whiteSpace=wrap;html=1;fillColor=#e1d5e7;strokeColor=#9673a6;" vertex="1" parent="1">
          <mxGeometry x="-4430" y="1195" width="120" height="60" as="geometry" />
        </mxCell>
        <mxCell id="gSGFPPf_8N2eM0KzgUbJ-26" value="Database - CosmosDB" style="rounded=0;whiteSpace=wrap;html=1;fillColor=#e1d5e7;strokeColor=#9673a6;" vertex="1" parent="1">
          <mxGeometry x="-4290" y="1195" width="120" height="60" as="geometry" />
        </mxCell>
        <mxCell id="gSGFPPf_8N2eM0KzgUbJ-27" value="Storage - BlobStorage" style="rounded=0;whiteSpace=wrap;html=1;fillColor=#e1d5e7;strokeColor=#9673a6;" vertex="1" parent="1">
          <mxGeometry x="-4430" y="1260" width="120" height="60" as="geometry" />
        </mxCell>
        <mxCell id="gSGFPPf_8N2eM0KzgUbJ-28" value="Monitoring" style="rounded=0;whiteSpace=wrap;html=1;fillColor=#e1d5e7;strokeColor=#9673a6;" vertex="1" parent="1">
          <mxGeometry x="-4290" y="1260" width="120" height="60" as="geometry" />
        </mxCell>
        <mxCell id="gSGFPPf_8N2eM0KzgUbJ-29" value="What are Azure Functions ?" style="swimlane;fontStyle=0;childLayout=stackLayout;horizontal=1;startSize=30;horizontalStack=0;resizeParent=1;resizeParentMax=0;resizeLast=0;collapsible=1;marginBottom=0;whiteSpace=wrap;html=1;fillColor=#f5f5f5;fontColor=#333333;strokeColor=#666666;" vertex="1" parent="1">
          <mxGeometry x="-5020" y="1040" width="320" height="300" as="geometry" />
        </mxCell>
        <mxCell id="gSGFPPf_8N2eM0KzgUbJ-30" value="Run code on demand" style="text;strokeColor=#6c8ebf;fillColor=#dae8fc;align=left;verticalAlign=middle;spacingLeft=4;spacingRight=4;overflow=hidden;points=[[0,0.5],[1,0.5]];portConstraint=eastwest;rotatable=0;whiteSpace=wrap;html=1;" vertex="1" parent="gSGFPPf_8N2eM0KzgUbJ-29">
          <mxGeometry y="30" width="320" height="30" as="geometry" />
        </mxCell>
        <mxCell id="gSGFPPf_8N2eM0KzgUbJ-31" value="No Management of underlying infrastructure" style="text;strokeColor=#82b366;fillColor=#d5e8d4;align=left;verticalAlign=middle;spacingLeft=4;spacingRight=4;overflow=hidden;points=[[0,0.5],[1,0.5]];portConstraint=eastwest;rotatable=0;whiteSpace=wrap;html=1;" vertex="1" parent="gSGFPPf_8N2eM0KzgUbJ-29">
          <mxGeometry y="60" width="320" height="30" as="geometry" />
        </mxCell>
        <mxCell id="gSGFPPf_8N2eM0KzgUbJ-40" value="Introduced in 2016" style="text;strokeColor=#82b366;fillColor=#d5e8d4;align=left;verticalAlign=middle;spacingLeft=4;spacingRight=4;overflow=hidden;points=[[0,0.5],[1,0.5]];portConstraint=eastwest;rotatable=0;whiteSpace=wrap;html=1;" vertex="1" parent="gSGFPPf_8N2eM0KzgUbJ-29">
          <mxGeometry y="90" width="320" height="30" as="geometry" />
        </mxCell>
        <mxCell id="gSGFPPf_8N2eM0KzgUbJ-41" value="Abstracts the boiler code" style="text;strokeColor=#82b366;fillColor=#d5e8d4;align=left;verticalAlign=middle;spacingLeft=4;spacingRight=4;overflow=hidden;points=[[0,0.5],[1,0.5]];portConstraint=eastwest;rotatable=0;whiteSpace=wrap;html=1;" vertex="1" parent="gSGFPPf_8N2eM0KzgUbJ-29">
          <mxGeometry y="120" width="320" height="30" as="geometry" />
        </mxCell>
        <mxCell id="gSGFPPf_8N2eM0KzgUbJ-42" value="Focus on Biz Logic" style="text;strokeColor=#82b366;fillColor=#d5e8d4;align=left;verticalAlign=middle;spacingLeft=4;spacingRight=4;overflow=hidden;points=[[0,0.5],[1,0.5]];portConstraint=eastwest;rotatable=0;whiteSpace=wrap;html=1;" vertex="1" parent="gSGFPPf_8N2eM0KzgUbJ-29">
          <mxGeometry y="150" width="320" height="30" as="geometry" />
        </mxCell>
        <mxCell id="gSGFPPf_8N2eM0KzgUbJ-43" value="Fast &amp;amp; Lightweighted development" style="text;strokeColor=#82b366;fillColor=#d5e8d4;align=left;verticalAlign=middle;spacingLeft=4;spacingRight=4;overflow=hidden;points=[[0,0.5],[1,0.5]];portConstraint=eastwest;rotatable=0;whiteSpace=wrap;html=1;" vertex="1" parent="gSGFPPf_8N2eM0KzgUbJ-29">
          <mxGeometry y="180" width="320" height="30" as="geometry" />
        </mxCell>
        <mxCell id="gSGFPPf_8N2eM0KzgUbJ-44" value="No continuous functions" style="text;strokeColor=#82b366;fillColor=#d5e8d4;align=left;verticalAlign=middle;spacingLeft=4;spacingRight=4;overflow=hidden;points=[[0,0.5],[1,0.5]];portConstraint=eastwest;rotatable=0;whiteSpace=wrap;html=1;" vertex="1" parent="gSGFPPf_8N2eM0KzgUbJ-29">
          <mxGeometry y="210" width="320" height="30" as="geometry" />
        </mxCell>
        <mxCell id="gSGFPPf_8N2eM0KzgUbJ-45" value="Very useful for Intermittent traffic" style="text;strokeColor=#82b366;fillColor=#d5e8d4;align=left;verticalAlign=middle;spacingLeft=4;spacingRight=4;overflow=hidden;points=[[0,0.5],[1,0.5]];portConstraint=eastwest;rotatable=0;whiteSpace=wrap;html=1;" vertex="1" parent="gSGFPPf_8N2eM0KzgUbJ-29">
          <mxGeometry y="240" width="320" height="30" as="geometry" />
        </mxCell>
        <mxCell id="gSGFPPf_8N2eM0KzgUbJ-46" value="Auto scale up &amp;amp; down" style="text;strokeColor=#82b366;fillColor=#d5e8d4;align=left;verticalAlign=middle;spacingLeft=4;spacingRight=4;overflow=hidden;points=[[0,0.5],[1,0.5]];portConstraint=eastwest;rotatable=0;whiteSpace=wrap;html=1;" vertex="1" parent="gSGFPPf_8N2eM0KzgUbJ-29">
          <mxGeometry y="270" width="320" height="30" as="geometry" />
        </mxCell>
        <mxCell id="gSGFPPf_8N2eM0KzgUbJ-33" value="" style="image;aspect=fixed;html=1;points=[];align=center;fontSize=12;image=img/lib/azure2/compute/Function_Apps.svg;" vertex="1" parent="1">
          <mxGeometry x="-4610" y="1395" width="68" height="60" as="geometry" />
        </mxCell>
        <mxCell id="gSGFPPf_8N2eM0KzgUbJ-34" value="Events + Binding" style="text;html=1;strokeColor=none;fillColor=none;align=center;verticalAlign=middle;whiteSpace=wrap;rounded=0;fontSize=22;" vertex="1" parent="1">
          <mxGeometry x="-4970" y="1460" width="170" height="30" as="geometry" />
        </mxCell>
        <mxCell id="gSGFPPf_8N2eM0KzgUbJ-35" value="" style="image;aspect=fixed;html=1;points=[];align=center;fontSize=12;image=img/lib/azure2/general/Code.svg;" vertex="1" parent="1">
          <mxGeometry x="-5090" y="1398" width="64" height="52" as="geometry" />
        </mxCell>
        <mxCell id="gSGFPPf_8N2eM0KzgUbJ-36" value="Code" style="text;html=1;strokeColor=none;fillColor=none;align=center;verticalAlign=middle;whiteSpace=wrap;rounded=0;fontSize=22;" vertex="1" parent="1">
          <mxGeometry x="-5090" y="1460" width="60" height="30" as="geometry" />
        </mxCell>
        <mxCell id="gSGFPPf_8N2eM0KzgUbJ-37" value="=" style="text;html=1;strokeColor=none;fillColor=none;align=center;verticalAlign=middle;whiteSpace=wrap;rounded=0;fontSize=22;" vertex="1" parent="1">
          <mxGeometry x="-4740" y="1410" width="60" height="30" as="geometry" />
        </mxCell>
        <mxCell id="gSGFPPf_8N2eM0KzgUbJ-38" value="" style="shape=image;html=1;verticalAlign=top;verticalLabelPosition=bottom;labelBackgroundColor=#ffffff;imageAspect=0;aspect=fixed;image=https://cdn3.iconfinder.com/data/icons/energy-and-power-glyph-24-px/24/Bolt_flashlight_lightning_power_thunder-128.png" vertex="1" parent="1">
          <mxGeometry x="-4925" y="1380" width="80" height="80" as="geometry" />
        </mxCell>
        <mxCell id="gSGFPPf_8N2eM0KzgUbJ-39" value="Azure Functions" style="text;html=1;strokeColor=none;fillColor=none;align=center;verticalAlign=middle;whiteSpace=wrap;rounded=0;fontSize=22;" vertex="1" parent="1">
          <mxGeometry x="-4610" y="1460" width="60" height="30" as="geometry" />
        </mxCell>
        <mxCell id="gSGFPPf_8N2eM0KzgUbJ-47" value="+" style="text;html=1;strokeColor=none;fillColor=none;align=center;verticalAlign=middle;whiteSpace=wrap;rounded=0;fontSize=22;" vertex="1" parent="1">
          <mxGeometry x="-5000" y="1405" width="60" height="30" as="geometry" />
        </mxCell>
        <mxCell id="gSGFPPf_8N2eM0KzgUbJ-48" value="Triggers" style="swimlane;whiteSpace=wrap;html=1;fillColor=#dae8fc;strokeColor=#6c8ebf;" vertex="1" parent="1">
          <mxGeometry x="-5850" y="1370" width="470" height="450" as="geometry" />
        </mxCell>
        <mxCell id="gSGFPPf_8N2eM0KzgUbJ-54" style="edgeStyle=orthogonalEdgeStyle;rounded=0;orthogonalLoop=1;jettySize=auto;html=1;entryX=0;entryY=0.5;entryDx=0;entryDy=0;" edge="1" parent="gSGFPPf_8N2eM0KzgUbJ-48" source="gSGFPPf_8N2eM0KzgUbJ-49" target="gSGFPPf_8N2eM0KzgUbJ-52">
          <mxGeometry relative="1" as="geometry" />
        </mxCell>
        <mxCell id="gSGFPPf_8N2eM0KzgUbJ-49" value="Web" style="verticalLabelPosition=bottom;aspect=fixed;html=1;shape=mxgraph.salesforce.web2;" vertex="1" parent="gSGFPPf_8N2eM0KzgUbJ-48">
          <mxGeometry x="30" y="35" width="60" height="60" as="geometry" />
        </mxCell>
        <mxCell id="gSGFPPf_8N2eM0KzgUbJ-51" value="Timer" style="html=1;verticalLabelPosition=bottom;align=center;labelBackgroundColor=#ffffff;verticalAlign=top;strokeWidth=2;strokeColor=#0080F0;shadow=0;dashed=0;shape=mxgraph.ios7.icons.gauge;" vertex="1" parent="gSGFPPf_8N2eM0KzgUbJ-48">
          <mxGeometry x="43.80000000000018" y="160" width="32.4" height="31.5" as="geometry" />
        </mxCell>
        <mxCell id="gSGFPPf_8N2eM0KzgUbJ-52" value="AZURE Function" style="rounded=1;whiteSpace=wrap;html=1;fillColor=#d5e8d4;strokeColor=#82b366;sketch=1;curveFitting=1;jiggle=2;" vertex="1" parent="gSGFPPf_8N2eM0KzgUbJ-48">
          <mxGeometry x="230" y="40" width="180" height="100" as="geometry" />
        </mxCell>
        <mxCell id="gSGFPPf_8N2eM0KzgUbJ-53" value="" style="image;aspect=fixed;html=1;points=[];align=center;fontSize=12;image=img/lib/azure2/compute/Function_Apps.svg;" vertex="1" parent="gSGFPPf_8N2eM0KzgUbJ-48">
          <mxGeometry x="350" y="50" width="34" height="30" as="geometry" />
        </mxCell>
        <mxCell id="gSGFPPf_8N2eM0KzgUbJ-55" style="edgeStyle=orthogonalEdgeStyle;rounded=0;orthogonalLoop=1;jettySize=auto;html=1;entryX=0.005;entryY=0.688;entryDx=0;entryDy=0;entryPerimeter=0;" edge="1" parent="gSGFPPf_8N2eM0KzgUbJ-48" source="gSGFPPf_8N2eM0KzgUbJ-51" target="gSGFPPf_8N2eM0KzgUbJ-52">
          <mxGeometry relative="1" as="geometry" />
        </mxCell>
        <mxCell id="gSGFPPf_8N2eM0KzgUbJ-56" value="Triggers" style="swimlane;fontStyle=0;childLayout=stackLayout;horizontal=1;startSize=30;horizontalStack=0;resizeParent=1;resizeParentMax=0;resizeLast=0;collapsible=1;marginBottom=0;whiteSpace=wrap;html=1;fillColor=#e1d5e7;strokeColor=#9673a6;" vertex="1" parent="gSGFPPf_8N2eM0KzgUbJ-48">
          <mxGeometry x="76.19999999999982" y="230" width="140" height="150" as="geometry" />
        </mxCell>
        <mxCell id="gSGFPPf_8N2eM0KzgUbJ-57" value="HTTP Trigger" style="text;strokeColor=none;fillColor=none;align=left;verticalAlign=middle;spacingLeft=4;spacingRight=4;overflow=hidden;points=[[0,0.5],[1,0.5]];portConstraint=eastwest;rotatable=0;whiteSpace=wrap;html=1;" vertex="1" parent="gSGFPPf_8N2eM0KzgUbJ-56">
          <mxGeometry y="30" width="140" height="30" as="geometry" />
        </mxCell>
        <mxCell id="gSGFPPf_8N2eM0KzgUbJ-58" value="Timer Trigger" style="text;strokeColor=none;fillColor=none;align=left;verticalAlign=middle;spacingLeft=4;spacingRight=4;overflow=hidden;points=[[0,0.5],[1,0.5]];portConstraint=eastwest;rotatable=0;whiteSpace=wrap;html=1;" vertex="1" parent="gSGFPPf_8N2eM0KzgUbJ-56">
          <mxGeometry y="60" width="140" height="30" as="geometry" />
        </mxCell>
        <mxCell id="gSGFPPf_8N2eM0KzgUbJ-59" value="Blob Storage&amp;nbsp;" style="text;strokeColor=none;fillColor=none;align=left;verticalAlign=middle;spacingLeft=4;spacingRight=4;overflow=hidden;points=[[0,0.5],[1,0.5]];portConstraint=eastwest;rotatable=0;whiteSpace=wrap;html=1;" vertex="1" parent="gSGFPPf_8N2eM0KzgUbJ-56">
          <mxGeometry y="90" width="140" height="30" as="geometry" />
        </mxCell>
        <mxCell id="gSGFPPf_8N2eM0KzgUbJ-60" value="Queue Trigger" style="text;strokeColor=none;fillColor=none;align=left;verticalAlign=middle;spacingLeft=4;spacingRight=4;overflow=hidden;points=[[0,0.5],[1,0.5]];portConstraint=eastwest;rotatable=0;whiteSpace=wrap;html=1;" vertex="1" parent="gSGFPPf_8N2eM0KzgUbJ-56">
          <mxGeometry y="120" width="140" height="30" as="geometry" />
        </mxCell>
        <mxCell id="gSGFPPf_8N2eM0KzgUbJ-61" value="Each Azure Function has exactly one trigger" style="text;html=1;strokeColor=#666666;fillColor=#f5f5f5;align=center;verticalAlign=middle;whiteSpace=wrap;rounded=0;fontSize=22;fontColor=#333333;" vertex="1" parent="gSGFPPf_8N2eM0KzgUbJ-48">
          <mxGeometry x="170" y="150" width="290" height="70" as="geometry" />
        </mxCell>
        <mxCell id="gSGFPPf_8N2eM0KzgUbJ-50" value="" style="endArrow=none;html=1;rounded=0;" edge="1" parent="1">
          <mxGeometry width="50" height="50" relative="1" as="geometry">
            <mxPoint x="-5840" y="1520" as="sourcePoint" />
            <mxPoint x="-5730" y="1520" as="targetPoint" />
          </mxGeometry>
        </mxCell>
        <mxCell id="gSGFPPf_8N2eM0KzgUbJ-62" value="Bindings" style="swimlane;whiteSpace=wrap;html=1;" vertex="1" parent="1">
          <mxGeometry x="-6490" y="1650" width="510" height="320" as="geometry" />
        </mxCell>
        <mxCell id="gSGFPPf_8N2eM0KzgUbJ-63" value="Bindings : Declarative way of connecting services/resources with azure functions" style="text;html=1;align=center;verticalAlign=middle;whiteSpace=wrap;rounded=0;fillColor=#dae8fc;strokeColor=#6c8ebf;" vertex="1" parent="gSGFPPf_8N2eM0KzgUbJ-62">
          <mxGeometry x="20" y="30" width="270" height="30" as="geometry" />
        </mxCell>
        <mxCell id="gSGFPPf_8N2eM0KzgUbJ-71" style="edgeStyle=orthogonalEdgeStyle;rounded=0;orthogonalLoop=1;jettySize=auto;html=1;" edge="1" parent="gSGFPPf_8N2eM0KzgUbJ-62" source="gSGFPPf_8N2eM0KzgUbJ-64">
          <mxGeometry relative="1" as="geometry">
            <mxPoint x="440" y="175" as="targetPoint" />
          </mxGeometry>
        </mxCell>
        <mxCell id="gSGFPPf_8N2eM0KzgUbJ-64" value="Azure Function" style="rounded=1;whiteSpace=wrap;html=1;fillColor=#d5e8d4;strokeColor=#82b366;sketch=1;curveFitting=1;jiggle=2;" vertex="1" parent="gSGFPPf_8N2eM0KzgUbJ-62">
          <mxGeometry x="160" y="150" width="170" height="50" as="geometry" />
        </mxCell>
        <mxCell id="gSGFPPf_8N2eM0KzgUbJ-65" value="" style="image;aspect=fixed;html=1;points=[];align=center;fontSize=12;image=img/lib/azure2/compute/Function_Apps.svg;" vertex="1" parent="gSGFPPf_8N2eM0KzgUbJ-62">
          <mxGeometry x="290" y="150" width="34" height="30" as="geometry" />
        </mxCell>
        <mxCell id="gSGFPPf_8N2eM0KzgUbJ-67" style="edgeStyle=orthogonalEdgeStyle;rounded=0;orthogonalLoop=1;jettySize=auto;html=1;" edge="1" parent="gSGFPPf_8N2eM0KzgUbJ-62" source="gSGFPPf_8N2eM0KzgUbJ-66" target="gSGFPPf_8N2eM0KzgUbJ-64">
          <mxGeometry relative="1" as="geometry" />
        </mxCell>
        <mxCell id="gSGFPPf_8N2eM0KzgUbJ-66" value="Trigger" style="text;html=1;align=center;verticalAlign=middle;whiteSpace=wrap;rounded=0;" vertex="1" parent="gSGFPPf_8N2eM0KzgUbJ-62">
          <mxGeometry x="30" y="160" width="60" height="30" as="geometry" />
        </mxCell>
        <mxCell id="gSGFPPf_8N2eM0KzgUbJ-69" style="edgeStyle=orthogonalEdgeStyle;rounded=0;orthogonalLoop=1;jettySize=auto;html=1;entryX=0.5;entryY=0;entryDx=0;entryDy=0;" edge="1" parent="gSGFPPf_8N2eM0KzgUbJ-62" source="gSGFPPf_8N2eM0KzgUbJ-68" target="gSGFPPf_8N2eM0KzgUbJ-64">
          <mxGeometry relative="1" as="geometry" />
        </mxCell>
        <mxCell id="gSGFPPf_8N2eM0KzgUbJ-68" value="Input Binding" style="text;html=1;align=center;verticalAlign=middle;whiteSpace=wrap;rounded=0;" vertex="1" parent="gSGFPPf_8N2eM0KzgUbJ-62">
          <mxGeometry x="175" y="90" width="140" height="30" as="geometry" />
        </mxCell>
        <mxCell id="gSGFPPf_8N2eM0KzgUbJ-70" value="Output Binding" style="html=1;verticalLabelPosition=bottom;align=center;labelBackgroundColor=#ffffff;verticalAlign=top;strokeWidth=2;strokeColor=#0080F0;shadow=0;dashed=0;shape=mxgraph.ios7.icons.mail;" vertex="1" parent="gSGFPPf_8N2eM0KzgUbJ-62">
          <mxGeometry x="450" y="166.75" width="30" height="16.5" as="geometry" />
        </mxCell>
        <mxCell id="gSGFPPf_8N2eM0KzgUbJ-72" value="/products" style="text;html=1;strokeColor=none;fillColor=none;align=center;verticalAlign=middle;whiteSpace=wrap;rounded=0;fontSize=22;" vertex="1" parent="1">
          <mxGeometry x="-4280" y="1420" width="60" height="30" as="geometry" />
        </mxCell>
        <mxCell id="gSGFPPf_8N2eM0KzgUbJ-73" value="/productdetails/1" style="text;html=1;strokeColor=none;fillColor=none;align=center;verticalAlign=middle;whiteSpace=wrap;rounded=0;fontSize=22;" vertex="1" parent="1">
          <mxGeometry x="-4240" y="1510" width="60" height="30" as="geometry" />
        </mxCell>
      </root>
    </mxGraphModel>
  </diagram>
</mxfile>
